PathFileType	4	(X/Y/Z)	C:/Users/opensim2020/Desktop/walking_exp_matlab/subject03_walking04_straight_03.trc	
DataRate	CameraRate	NumFrames	NumMarkers	Units	OrigDataRate	OrigDataStartFrame	OrigNumFrames	
100.00	100.00	4	51	mm	100.00	2405	256	
Frame#	Time	LFHD			RFHD			LBHD			RBHD			C7			T10			CLAV			STRN			RBAK			LSHO			LUPA			LELB			LFRM			LWRA			LWRB			LFIN			RSHO			RUPA			RELB			RFRM			RWRA			RWRB			RFIN			LASI			RASI			LPSI			RPSI			LTHI			LKNE			LTIB			LANK			LHEE			LTOE			RTHI			RKNE			RTIB			RANK			RHEE			RTOE			*39			*40			*41			*42			*43			*44			*45			*46			*47			*48			*49			*50			
		X1	Y1	Z1	X2	Y2	Z2	X3	Y3	Z3	X4	Y4	Z4	X5	Y5	Z5	X6	Y6	Z6	X7	Y7	Z7	X8	Y8	Z8	X9	Y9	Z9	X10	Y10	Z10	X11	Y11	Z11	X12	Y12	Z12	X13	Y13	Z13	X14	Y14	Z14	X15	Y15	Z15	X16	Y16	Z16	X17	Y17	Z17	X18	Y18	Z18	X19	Y19	Z19	X20	Y20	Z20	X21	Y21	Z21	X22	Y22	Z22	X23	Y23	Z23	X24	Y24	Z24	X25	Y25	Z25	X26	Y26	Z26	X27	Y27	Z27	X28	Y28	Z28	X29	Y29	Z29	X30	Y30	Z30	X31	Y31	Z31	X32	Y32	Z32	X33	Y33	Z33	X34	Y34	Z34	X35	Y35	Z35	X36	Y36	Z36	X37	Y37	Z37	X38	Y38	Z38	X39	Y39	Z39	X40	Y40	Z40	X41	Y41	Z41	X42	Y42	Z42	X43	Y43	Z43	X44	Y44	Z44	X45	Y45	Z45	X46	Y46	Z46	X47	Y47	Z47	X48	Y48	Z48	X49	Y49	Z49	X50	Y50	Z50	X51	Y51	Z51	

161	1.600	-1224.47388	323.68326	1623.41272	-1092.70264	303.23074	1624.97437	-1239.92981	196.21654	1579.60205	-1109.66553	181.40343	1581.21838	-1178.32861	162.24808	1416.38989	-1172.41687	135.38910	1102.81860	-1174.31958	284.39154	1341.87964	-1180.21216	332.71475	1178.36023	-1080.21838	111.32652	1239.93030	-1331.05945	241.33755	1376.81592	-1400.72534	251.51128	1180.20996	-1411.93408	275.40268	1059.08032	-1406.25500	321.38010	936.92358	-1371.29822	356.63022	824.74524	-1423.97583	337.72659	824.74042	-1408.94812	363.58218	744.56683	-1015.14178	238.13211	1363.90784	-941.87903	246.21814	1141.29956	-927.57227	264.93649	1030.04980	-926.34100	288.66354	895.29938	-962.87964	323.61270	802.07806	-918.13696	293.82217	794.90698	-930.18475	319.32861	724.99225	-1291.66699	298.68958	936.29968	-1053.60571	306.33987	943.25507	-1237.76782	138.96724	959.00189	-1088.51746	144.93692	975.28278	-1345.17078	268.26984	632.50977	-1328.06055	295.94397	455.20581	-1318.66357	140.94693	334.74573	-1271.15381	-14.02579	200.93767	-1228.63684	-61.98719	210.60812	-1255.97876	43.79494	61.98737	-1017.86060	251.92110	648.03992	-1058.46838	267.95319	468.34982	-1059.69495	228.41592	282.14642	-1115.33765	210.05101	67.86913	-1166.43469	166.92140	36.66936	-1132.64697	353.54996	30.48884																																				 
162	1.610	-1224.68237	333.13766	1623.37585	-1092.86511	312.82526	1625.20081	-1239.94019	205.70699	1579.38110	-1109.60254	191.05606	1581.21716	-1177.93201	171.49748	1416.75244	-1171.88403	144.23749	1103.09570	-1174.05859	293.73642	1341.89099	-1179.64294	341.58423	1178.25098	-1079.31836	120.74457	1240.55786	-1330.77332	250.12715	1376.67395	-1400.39636	257.97382	1179.74463	-1411.54285	280.82556	1058.32227	-1406.10376	324.68506	935.34680	-1371.69458	357.74072	822.39087	-1424.35303	339.22531	823.06281	-1410.12634	363.78696	742.53864	-1014.81799	248.03500	1364.42029	-941.41321	258.79205	1141.97949	-927.33032	279.27032	1031.05225	-925.83429	304.81161	896.63263	-962.82831	340.68375	803.92377	-917.71521	311.44461	796.40564	-929.54077	338.45190	727.21985	-1290.71521	308.14099	937.11865	-1052.68604	314.78143	943.18097	-1237.69910	148.00938	959.52393	-1088.38013	153.58128	975.19757	-1345.46729	282.73239	633.60132	-1327.63000	314.23871	456.67065	-1318.57849	161.78264	333.41641	-1271.97314	8.28043	197.35873	-1229.79114	-40.66981	205.09654	-1256.46301	71.61713	61.37539	-1018.12085	259.13800	647.66779	-1058.49939	272.96130	467.98157	-1059.78992	231.26414	282.15439	-1115.54504	210.50858	68.10236	-1166.60303	166.85681	36.80194	-1132.65161	353.66470	30.41911																																				 
163	1.620	-1224.95923	342.58340	1623.24890	-1093.09644	322.40042	1625.38464	-1239.95569	215.18364	1579.16382	-1109.64490	200.58719	1581.40564	-1177.46362	180.81233	1416.91284	-1171.51294	153.03987	1103.35486	-1173.79834	303.01044	1341.84070	-1179.05493	350.54431	1178.12976	-1078.46338	130.13812	1241.13818	-1330.50903	258.92355	1376.72388	-1400.15039	264.38617	1179.32275	-1411.19971	285.83533	1057.70544	-1406.04419	327.88980	934.04858	-1372.08301	358.76666	820.28027	-1424.80933	340.38458	821.64899	-1411.31653	363.94473	740.86462	-1014.61249	257.90704	1364.90979	-940.95911	271.08981	1142.76624	-927.09320	293.44650	1032.20471	-925.72131	320.95755	898.21924	-962.71283	357.77313	805.96545	-917.22229	329.15747	798.17175	-928.92920	357.47058	729.66504	-1290.11157	317.78214	937.62079	-1051.69995	323.12213	942.96655	-1237.74731	157.13518	959.97345	-1088.28003	162.07570	975.11200	-1344.78857	297.79922	634.65918	-1326.92346	332.31863	458.30884	-1318.58093	182.56050	331.93811	-1272.73975	31.48562	192.88162	-1231.00940	-18.71866	198.61415	-1256.42261	100.51147	60.13271	-1017.82501	265.18170	647.46069	-1058.60974	278.03198	467.66653	-1060.14221	233.98863	282.20795	-1115.68701	210.73959	68.37482	-1166.72290	166.94083	37.29497	-1132.66431	353.81027	30.36872	-1185.26172	252.97900	1685.90552																																	 
164	1.630	-1225.29114	352.05615	1623.13025	-1093.44226	332.00253	1625.53564	-1239.98694	224.60345	1578.99048	-1109.67688	210.24294	1581.46716	-1177.03772	190.04529	1417.08533	-1171.17847	161.86853	1103.59607	-1173.57349	312.26199	1341.83167	-1178.49670	359.32306	1177.98376	-1077.57971	139.54573	1241.66687	-1330.15393	267.80850	1376.74988	-1399.75220	270.73410	1179.05566	-1410.82825	290.77609	1057.27332	-1406.05164	330.90421	932.96106	-1372.71716	360.15945	818.62531	-1425.29480	341.57068	820.54535	-1412.50476	364.22791	739.53766	-1014.30426	267.64685	1365.46399	-940.57703	283.32373	1143.66541	-926.86969	307.46222	1033.45068	-925.39453	337.05267	899.94031	-962.52277	374.86942	808.18915	-916.77264	346.89255	800.13062	-928.33154	376.28421	732.16876	-1289.19641	326.95328	938.16479	-1050.88574	331.29935	942.58667	-1237.88733	166.19409	960.36157	-1088.27490	170.51767	974.95660	-1344.30469	311.46710	636.27289	-1326.11816	350.12109	460.16794	-1318.50830	203.30469	330.24472	-1273.54431	55.35873	187.52635	-1232.21191	4.04135	190.87755	-1256.26746	130.60855	58.71061	-1018.15442	272.51080	646.98383	-1058.65637	283.04810	467.32404	-1060.05591	237.13388	282.23700	-1115.84338	211.14349	68.64744	-1166.77600	167.05130	37.76940	-1132.66711	353.94324	30.30166	-1185.65808	262.45377	1685.80383																																	 
